<svg id="notification_1_" data-name="notification" xmlns="http://www.w3.org/2000/svg" width="18.588" height="22.307" viewBox="0 0 18.588 22.307">
  <g id="Group_3356" data-name="Group 3356" transform="translate(0)">
    <g id="Group_3355" data-name="Group 3355">
      <path id="Path_8290" data-name="Path 8290" d="M61.2,18.815l-1.6-2.66a7.9,7.9,0,0,1-1.126-4.065V9.759a6.514,6.514,0,0,0-4.647-6.232V1.859a1.859,1.859,0,1,0-3.718,0V3.527a6.514,6.514,0,0,0-4.647,6.232v2.33a7.906,7.906,0,0,1-1.126,4.065l-1.6,2.66a.466.466,0,0,0,.4.7H60.8a.465.465,0,0,0,.4-.7Z" transform="translate(-42.675)" fill="#b7b7b7"/>
    </g>
  </g>
  <g id="Group_3358" data-name="Group 3358" transform="translate(6.367 20.448)">
    <g id="Group_3357" data-name="Group 3357">
      <path id="Path_8291" data-name="Path 8291" d="M188.815,469.333a3.234,3.234,0,0,0,5.854,0Z" transform="translate(-188.815 -469.333)" fill="#b7b7b7"/>
    </g>
  </g>
</svg>
