<svg xmlns="http://www.w3.org/2000/svg" width="16.387" height="16.205" viewBox="0 0 16.387 16.205">
  <path id="noun-filter-4025735_1_" data-name="noun-filter-4025735 (1)" d="M108.937,37.733a2.265,2.265,0,0,0-2.173,1.674h-1.171a.585.585,0,1,0,0,1.171h1.168a2.248,2.248,0,0,0,4.343.029l9.7-.029h0a.585.585,0,0,0,0-1.171l-9.688.029a2.267,2.267,0,0,0-2.183-1.7Zm0,1.171a1.091,1.091,0,1,1-1.09,1.09A1.082,1.082,0,0,1,108.937,38.9Zm6.253,4.486a2.294,2.294,0,0,0-2.205,1.7h-7.392a.585.585,0,1,0,0,1.171h7.393a2.277,2.277,0,0,0,4.408,0h3.414a.585.585,0,0,0,0-1.171h-3.413a2.294,2.294,0,0,0-2.205-1.7Zm0,1.171a1.119,1.119,0,1,1-1.12,1.117A1.109,1.109,0,0,1,115.19,44.559Zm-4.548,4.8a2.3,2.3,0,0,0-2.205,1.7h-2.843a.585.585,0,1,0,0,1.171h2.842a2.278,2.278,0,0,0,4.411,0h7.962a.585.585,0,0,0,0-1.171h-7.963a2.3,2.3,0,0,0-2.2-1.7Zm0,1.171a1.12,1.12,0,1,1-1.12,1.12A1.112,1.112,0,0,1,110.642,50.527Z" transform="translate(-105.006 -37.733)" fill="#fff"/>
</svg>
