<svg xmlns="http://www.w3.org/2000/svg" width="14.946" height="14.954" viewBox="0 0 14.946 14.954">
  <path id="noun-alarm-3632570" d="M150.2,79.621a.415.415,0,1,1-.461.691l-2.491-1.661a.416.416,0,0,1-.185-.345V74.57a.415.415,0,0,1,.83,0v3.514Zm3.921-1.315a6.643,6.643,0,1,1-7.054-6.621c0-.007,0-.013,0-.021v-.83h-.83a.415.415,0,1,1,0-.83h2.491a.415.415,0,1,1,0,.83h-.83v.83c0,.007,0,.013,0,.021h0a6.646,6.646,0,0,1,6.232,6.622Zm-.83,0h0a5.819,5.819,0,1,0-1.7,4.108,5.812,5.812,0,0,0,1.7-4.108Zm-12.715-6.9a1.946,1.946,0,0,0,0,2.751l2.751-2.751a1.945,1.945,0,0,0-2.751,0Zm13.806,0h0a1.945,1.945,0,0,0-2.751,0l2.751,2.751a1.946,1.946,0,0,0,0-2.751Z" transform="translate(-140.006 -70.003)" fill="#327de3"/>
</svg>
