<svg xmlns="http://www.w3.org/2000/svg" width="22.779" height="22.791" viewBox="0 0 22.779 22.791">
  <path id="noun-alarm-3632570" d="M155.543,84.662a.633.633,0,1,1-.7,1.053l-3.8-2.531a.634.634,0,0,1-.282-.526V76.963a.633.633,0,0,1,1.266,0v5.356Zm5.977-2a10.124,10.124,0,1,1-10.751-10.092c0-.011-.007-.021-.007-.032V71.269H149.5a.633.633,0,1,1,0-1.265h3.8a.633.633,0,1,1,0,1.265h-1.265v1.266c0,.011-.006.021-.006.032h0a10.129,10.129,0,0,1,9.5,10.092Zm-1.265,0h0a8.868,8.868,0,1,0-2.6,6.261,8.857,8.857,0,0,0,2.6-6.261Zm-19.38-10.521a2.965,2.965,0,0,0,0,4.194l4.194-4.194a2.965,2.965,0,0,0-4.194,0Zm21.042,0h0a2.965,2.965,0,0,0-4.194,0l4.194,4.194a2.965,2.965,0,0,0,0-4.194Z" transform="translate(-140.006 -70.003)" fill="#838383"/>
</svg>
