<svg id="noun-settings-user-1526826" xmlns="http://www.w3.org/2000/svg" width="18.735" height="19.507" viewBox="0 0 18.735 19.507">
  <path id="Path_10543" data-name="Path 10543" d="M223.636,85.826a3.715,3.715,0,1,0-3.715-3.715A3.719,3.719,0,0,0,223.636,85.826Z" transform="translate(-216.847 -78.396)" fill="#b7b7b7"/>
  <path id="Path_10544" data-name="Path 10544" d="M357.655,290.178a.271.271,0,0,0-.267-.224h-.568a3.913,3.913,0,0,0-.4-.959l.4-.4a.27.27,0,0,0,.03-.347,4.571,4.571,0,0,0-1.134-1.13.271.271,0,0,0-.347.031l-.4.4a3.89,3.89,0,0,0-.958-.4v-.568a.271.271,0,0,0-.224-.267,4.757,4.757,0,0,0-1.595,0,.271.271,0,0,0-.227.267v.57a3.848,3.848,0,0,0-.952.392l-.4-.4a.27.27,0,0,0-.347-.03,4.68,4.68,0,0,0-1.133,1.133.271.271,0,0,0,.03.348l.4.4a3.935,3.935,0,0,0-.395.958h-.568a.271.271,0,0,0-.267.224,4.538,4.538,0,0,0-.067.8,4.978,4.978,0,0,0,.067.8.271.271,0,0,0,.267.228h.57a3.855,3.855,0,0,0,.4.955l-.4.4a.271.271,0,0,0-.03.347,4.6,4.6,0,0,0,1.127,1.127.272.272,0,0,0,.347-.03l.4-.4a3.849,3.849,0,0,0,.955.4v.57a.271.271,0,0,0,.227.267,4.88,4.88,0,0,0,.8.068,4.541,4.541,0,0,0,.8-.067.271.271,0,0,0,.224-.267V294.8a3.931,3.931,0,0,0,.958-.4l.4.4a.27.27,0,0,0,.348.03,4.66,4.66,0,0,0,1.132-1.133.271.271,0,0,0-.03-.347l-.4-.4a3.84,3.84,0,0,0,.392-.952h.57a.271.271,0,0,0,.267-.228,5,5,0,0,0,.067-.8,4.567,4.567,0,0,0-.067-.8Zm-3.023.8a1.55,1.55,0,0,1-.115.6.25.25,0,0,0-.013.038l-.006.012a1.666,1.666,0,0,1-.85.855.281.281,0,0,0-.052.016,1.6,1.6,0,0,1-1.225-.009l-.022-.009a1.65,1.65,0,0,1-.849-.842l-.022-.056a1.583,1.583,0,0,1-.116-.6,1.551,1.551,0,0,1,.115-.6.206.206,0,0,0,.015-.043,1.651,1.651,0,0,1,.856-.859l.015-.007.035-.012a1.628,1.628,0,0,1,1.2,0l.028.01.011.005a1.665,1.665,0,0,1,.866.87.261.261,0,0,0,.011.03,1.571,1.571,0,0,1,.116.6Z" transform="translate(-338.987 -276.193)" fill="#b7b7b7"/>
  <path id="Path_10545" data-name="Path 10545" d="M165.146,254.061a5.215,5.215,0,0,1,2.487-4.461.271.271,0,0,0,.037-.433,6.79,6.79,0,0,0-11.294,5.081.271.271,0,0,0,.271.271h8.239a.271.271,0,0,0,.262-.34c0-.038,0-.077,0-.117Z" transform="translate(-156.376 -239.279)" fill="#b7b7b7"/>
</svg>
