<svg xmlns="http://www.w3.org/2000/svg" width="12.179" height="11.744" viewBox="0 0 12.179 11.744">
  <g id="noun-chat-4515001" transform="translate(-97.998 -37.004)">
    <path id="Path_10734" data-name="Path 10734" d="M106.915,43.963a.653.653,0,0,0,.652-.652V37.657a.653.653,0,0,0-.652-.652H98.65a.653.653,0,0,0-.652.652v5.654a.653.653,0,0,0,.652.652H99.3v2.827a.218.218,0,0,0,.371.154l2.981-2.981Zm-4.5-.371-2.674,2.674v-2.52a.217.217,0,0,0-.217-.217h-.87a.218.218,0,0,1-.217-.217V37.657a.218.218,0,0,1,.217-.217h8.264a.218.218,0,0,1,.217.217v5.654a.218.218,0,0,1-.217.217h-4.35a.217.217,0,0,0-.154.064Zm7.765-4.2v5.654a.653.653,0,0,1-.652.652h-.652V48.53a.218.218,0,0,1-.371.154L105.52,45.7H101.7a.217.217,0,0,1,0-.435h3.915a.217.217,0,0,1,.154.064l2.673,2.674v-2.52a.217.217,0,0,1,.217-.217h.87a.218.218,0,0,0,.217-.217V39.4a.218.218,0,0,0-.217-.217h-1.3a.217.217,0,1,1,0-.435h1.3a.653.653,0,0,1,.653.652Zm-4.35-.435a.217.217,0,0,1-.217.217H99.955a.217.217,0,0,1,0-.435h5.654A.217.217,0,0,1,105.827,38.961Zm0,1.522a.217.217,0,0,1-.217.217H99.955a.217.217,0,0,1,0-.435h5.654A.217.217,0,0,1,105.827,40.484Zm-2.175,1.522a.217.217,0,0,1-.217.217h-3.48a.217.217,0,0,1,0-.435h3.48A.218.218,0,0,1,103.652,42.006Z"/>
  </g>
</svg>
