<svg xmlns="http://www.w3.org/2000/svg" width="17.186" height="19.225" viewBox="0 0 17.186 19.225">
  <g id="noun-share-3772309" transform="translate(-149.807 -56.016)">
    <path id="Path_10761" data-name="Path 10761" d="M155.175,62.727c-.13-.082-.262-.156-.4-.226s-.284-.123-.433-.176a3.5,3.5,0,0,0-2.257.043,3.283,3.283,0,0,0-.457.209,3.438,3.438,0,0,0-.8.6,3.527,3.527,0,0,0-.327.38,2.39,2.39,0,0,0-.151.221,3.548,3.548,0,0,0-.2.349q-.072.151-.13.31c-.038.113-.074.231-.106.353-.01.038-.017.082-.026.127a1.456,1.456,0,0,0-.043.252,1.184,1.184,0,0,0-.017.13.582.582,0,0,0-.01.091c0,.079-.01.156-.01.24a.338.338,0,0,0,0,.07,2.979,2.979,0,0,0,.036.457v.01c.01.06.017.123.031.183a.659.659,0,0,0,.017.065,3.459,3.459,0,0,0,.74,1.469,3.406,3.406,0,0,0,1.957,1.156.7.7,0,0,0,.139.017c.06.012.123.017.187.026.048,0,.1.01.151.012h.041c.053,0,.108,0,.161,0a1.281,1.281,0,0,0,.192-.01,1.14,1.14,0,0,0,.127,0c.01,0,.022,0,.031,0a3.26,3.26,0,0,0,.339-.048c.06-.012.118-.031.178-.043.113-.031.219-.06.327-.1a3.662,3.662,0,0,0,.611-.293,3.918,3.918,0,0,0,.5-.38c.043-.038.082-.074.123-.113l4.342,2.6v1.067a3.488,3.488,0,1,0,1.041-2.474l-4.344-2.608-.05-.031-.089-.053a3.487,3.487,0,0,0,0-1.952l.139-.082,4.347-2.611A3.474,3.474,0,1,0,160.2,58.5a3.36,3.36,0,0,0,0,1.967l-4.488,2.685a3.536,3.536,0,0,0-.531-.428Z" transform="translate(0 0)" fill="#838383"/>
  </g>
</svg>
